<?xml version="1.0" encoding="UTF-8"?>
<svg width="47px" height="47px" viewBox="0 0 47 47" version="1.1" xmlns="http://www.w3.org/2000/svg" xmlns:xlink="http://www.w3.org/1999/xlink">
    <!-- Generator: Sketch 54 (76480) - https://sketchapp.com -->
    <title>Group 10</title>
    <desc>Created with Sketch.</desc>
    <g id="Page-1" stroke="none" stroke-width="1" fill="none" fill-rule="evenodd">
        <g id="2.0---BWH0002----HomeFilterPage-Copy-4" transform="translate(-1630.000000, -405.000000)">
            <g id="Group-2" transform="translate(1630.000000, 0.000000)">
                <g id="Group-10" transform="translate(23.000000, 427.500000) scale(-1, 1) translate(-23.000000, -427.500000) translate(0.500000, 405.000000)">
                    <g id="Group-3" transform="translate(0.000000, 0.666700)">
                        <path d="M22.667,0.333 C10.609,0.333 0.834,10.108 0.834,22.167 C0.834,26.571 2.143,30.669 4.387,34.1 L0.663,44 L10.504,40.299 C13.979,42.636 18.164,44 22.667,44 C34.726,44 44.5,34.225 44.5,22.167 C44.5,10.108 34.726,0.333 22.667,0.333" id="Fill-1" stroke="#F1F1F1" stroke-width="2" fill="#F47E24"></path>
                        <rect id="Rectangle" fill="#FFFFFF" x="12.663" y="10.3333" width="22" height="5"></rect>
                        <rect id="Rectangle-Copy" fill="#FFFFFF" x="8.663" y="19.3333" width="20" height="5"></rect>
                        <rect id="Rectangle-Copy-2" fill="#FFFFFF" x="16.663" y="28.3333" width="18" height="5"></rect>
                    </g>
                </g>
            </g>
        </g>
    </g>
</svg>