<?xml version="1.0" encoding="UTF-8"?>
<svg width="44px" height="44px" viewBox="0 0 44 44" version="1.1" xmlns="http://www.w3.org/2000/svg" xmlns:xlink="http://www.w3.org/1999/xlink">
    <!-- Generator: Sketch 54 (76480) - https://sketchapp.com -->
    <title>Group 10</title>
    <desc>Created with Sketch.</desc>
    <g id="Page-1" stroke="none" stroke-width="1" fill="none" fill-rule="evenodd">
        <g id="2.0---BWH0002----HomeFilterPage-Copy-13" transform="translate(-1333.000000, -811.000000)">
            <g id="Group-10" transform="translate(1355.000000, 832.750000) scale(-1, 1) translate(-1355.000000, -832.750000) translate(1333.000000, 810.250000)">
                <g id="Group-3" transform="translate(0.000000, 0.666700)">
                    <path d="M22.004,0.333 C9.946,0.333 0.171,10.108 0.171,22.167 C0.171,26.571 1.48,30.669 3.724,34.1 L-2.34479103e-13,44 L9.841,40.299 C13.316,42.636 17.501,44 22.004,44 C34.063,44 43.837,34.225 43.837,22.167 C43.837,10.108 34.063,0.333 22.004,0.333" id="Fill-1" fill="#F47E24"></path>
                    <rect id="Rectangle" fill="#FFFFFF" x="12" y="10.3333" width="22" height="5"></rect>
                    <rect id="Rectangle-Copy" fill="#FFFFFF" x="8" y="19.3333" width="20" height="5"></rect>
                    <rect id="Rectangle-Copy-2" fill="#FFFFFF" x="16" y="28.3333" width="18" height="5"></rect>
                </g>
            </g>
        </g>
    </g>
</svg>