<?xml version="1.0" encoding="UTF-8"?>
<svg width="22px" height="21px" viewBox="0 0 22 21" version="1.1" xmlns="http://www.w3.org/2000/svg" xmlns:xlink="http://www.w3.org/1999/xlink">
    <!-- Generator: Sketch 54 (76480) - https://sketchapp.com -->
    <title>Group 7</title>
    <desc>Created with Sketch.</desc>
    <g id="Page-1" stroke="none" stroke-width="1" fill="none" fill-rule="evenodd">
        <g id="2.0---BWH0002----HomeFilterPage-Copy-10" transform="translate(-1651.000000, -762.000000)">
            <g id="Group-7" transform="translate(1651.218176, 762.000000)">
                <path d="M10.494792,-1.59872116e-14 C4.74373756,-1.59872116e-14 0.0815583272,4.66217923 0.0815583272,10.4137106 C0.0815583272,12.5141953 0.705884937,14.4687334 1.77615912,16.1051464 L-6.25277607e-13,20.8269443 L4.69365788,19.061755 C6.35105663,20.1763855 8.34708938,20.8269443 10.494792,20.8269443 C16.2463234,20.8269443 20.9080257,16.1647651 20.9080257,10.4137106 C20.9080257,4.66217923 16.2463234,-1.59872116e-14 10.494792,-1.59872116e-14" id="Fill-1" fill="#000000" transform="translate(10.454013, 10.413472) scale(-1, 1) translate(-10.454013, -10.413472) "></path>
                <rect id="Rectangle" fill="#FFFFFF" x="5.72339138" y="4.7696359" width="10.4928842" height="2.38474641"></rect>
                <rect id="Rectangle-Copy" fill="#FFFFFF" x="3.81559425" y="9.06217944" width="9.53898563" height="2.38474641"></rect>
                <rect id="Rectangle-Copy-2" fill="#FFFFFF" x="7.63118851" y="13.354723" width="8.58508707" height="2.38474641"></rect>
            </g>
        </g>
    </g>
</svg>